# xmcd
#
# Track frame offsets: 
#        150
#        22443
#        37099
#        51873
#        62734
#        88473
#        100304
#        112362
#        129426
#        140934
#        156086
#        166894
#        188023
#
# Disc length: 2885 seconds
#
# Revision: 0
# Processed by: cddbd v1.5.2PL0 Copyright (c) Steve Scherf et al.
# Submitted via: ExactAudioCopy v1.3
#
DISCID=c90b430d
DTITLE=Big Joe and The Dynaflows - Rockhouse Party
DYEAR=2019
DGENRE=Blues
TTITLE0=Driving Wheel
TTITLE1=So Mean To Me
TTITLE2=Eight Men And Four Women
TTITLE3=Go On Fool
TTITLE4=World Gone Wrong
TTITLE5=If You Need Some Lovin'
TTITLE6=Overdrive
TTITLE7=Tennessee Woman
TTITLE8=Go With The Flow
TTITLE9=I'm A County Boy
TTITLE10=Vibrate
TTITLE11=Sleepy Joe
TTITLE12=Two Years Of Torture
EXTD=
EXTT0=
EXTT1=
EXTT2=
EXTT3=
EXTT4=
EXTT5=
EXTT6=
EXTT7=
EXTT8=
EXTT9=
EXTT10=
EXTT11=
EXTT12=
PLAYORDER=
